<?xml version="1.0" encoding="UTF-8" standalone="no"?>
<!-- Created with Inkscape (http://www.inkscape.org/) -->

<svg
   xmlns:dc="http://purl.org/dc/elements/1.1/"
   xmlns:cc="http://creativecommons.org/ns#"
   xmlns:rdf="http://www.w3.org/1999/02/22-rdf-syntax-ns#"
   xmlns:svg="http://www.w3.org/2000/svg"
   xmlns="http://www.w3.org/2000/svg"
   xmlns:sodipodi="http://sodipodi.sourceforge.net/DTD/sodipodi-0.dtd"
   xmlns:inkscape="http://www.inkscape.org/namespaces/inkscape"
   width="91.513847mm"
   height="36.425114mm"
   viewBox="0 0 324.26167 129.06536"
   id="svg3534"
   version="1.1"
   inkscape:version="0.91 r13725"
   sodipodi:docname="BNP Paribas 2000.svg">
  <defs
     id="defs3536" />
  <sodipodi:namedview
     id="base"
     pagecolor="#ffffff"
     bordercolor="#666666"
     borderopacity="1.0"
     inkscape:pageopacity="0.0"
     inkscape:pageshadow="2"
     inkscape:zoom="2.8"
     inkscape:cx="79.536507"
     inkscape:cy="80.225187"
     inkscape:document-units="px"
     inkscape:current-layer="layer1"
     showgrid="false"
     fit-margin-left="1"
     fit-margin-bottom="1"
     fit-margin-top="1"
     fit-margin-right="1"
     inkscape:window-width="1920"
     inkscape:window-height="1017"
     inkscape:window-x="-8"
     inkscape:window-y="-8"
     inkscape:window-maximized="1" />
  <metadata
     id="metadata3539">
    <rdf:RDF>
      <cc:Work
         rdf:about="">
        <dc:format>image/svg+xml</dc:format>
        <dc:type
           rdf:resource="http://purl.org/dc/dcmitype/StillImage" />
        <dc:title></dc:title>
      </cc:Work>
    </rdf:RDF>
  </metadata>
  <g
     inkscape:label="Calque 1"
     inkscape:groupmode="layer"
     id="layer1"
     transform="translate(327.84515,-199.2581)">
    <path
       inkscape:connector-curvature="0"
       id="path3428"
       style="fill:#018970;fill-opacity:1;fill-rule:nonzero;stroke:none"
       d="m -215.26304,227.15515 c -9.93,5.81625 -12.97125,6.27125 -23.67875,12.72625 6.23125,-6.79125 8.4025,-9.66 12.305,-15.35875 -9.93875,0.52375 -24.33625,1.7125 -34.6575,3.99 8.97875,-4.7625 26.7425,-10.115 36.11375,-11.365 -2.17375,-2.98875 -19.755,-12.5425 -24.14125,-14.34625 13.91625,1.08125 30.94125,6.24125 39.17625,11.32875 3.3175,-1.00875 6.65375,-1.08375 12.66125,-1.61375 -1.5325,2.645 -1.55125,4.1775 -7.49875,8.0925 1.63875,4.38875 -2.2675,28.54375 -5.49375,34.975 -0.14125,-10.12125 -1.045,-22.9025 -4.78625,-28.42875" />
    <path
       inkscape:connector-curvature="0"
       id="path3430"
       style="fill:#018970;fill-opacity:1;fill-rule:nonzero;stroke:none"
       d="m -287.70804,313.8064 c -5.71875,-2.1025 -9.825,-4.56125 -14.32125,-8.775 1.3525,-3.705 2.8925,-6.64 5.4175,-10.33375 -4.65375,0.66 -8.015,1.16 -12.0075,1.94875 -3.26125,-5.70375 -4.70375,-11.1475 -6.37,-18.74125 -0.89375,8.04125 -1.21625,13.7925 -0.0663,20.22 -3.64875,0.99625 -6.2475,1.89625 -9.24625,3.235 4.195,2.6025 7.6025,4.6075 12.34,6.77875 2.49875,5.4125 5.12,9.1075 9.355,13.25375 -1.0125,-3.5375 -1.24,-6.38 -0.87875,-10.08625 5.29,1.54125 9.77625,2.3175 15.7775,2.5" />
    <path
       inkscape:connector-curvature="0"
       id="path3432"
       style="fill:#018970;fill-opacity:1;fill-rule:nonzero;stroke:none"
       d="m -272.90679,233.44765 0,0 c -1.8025,2.3025 -3.845,6.58625 -4.38875,8.58875 14.63125,2.0175 26.425,9.515 26.4325,9.5175 -12.8825,-2.275 -19.60125,-1.99125 -24.38125,-1.57 -4.7675,0.46875 -5.73125,1.0425 -5.73125,1.0425 -3.445,7.50375 -5.5075,20.5475 -5.51,20.555 -2.33375,-5.61625 -5.71125,-16.87 -5.7125,-16.87625 -6.4675,3.47625 -21.32625,17.45125 -21.3325,17.45625 8.1775,-16.37375 16.45625,-23.8775 16.46125,-23.87875 -2.85,-2.85125 -10.3275,-4.2825 -15.79,-4.5275 2.84625,-1.17 10.14,-2.54 15.72625,-2.7725 5.59,-0.1775 8.975,0.1625 8.97625,0.1625 5.025,-3.95625 12.595,-7.28875 15.25,-7.6975" />
    <path
       inkscape:connector-curvature="0"
       id="path3434"
       style="fill:#018970;fill-opacity:1;fill-rule:nonzero;stroke:none"
       d="m -257.38429,303.6764 c -2.60625,3.48875 -4.80375,6.26125 -7.695,9.47625 -4.92625,1.33875 -8.85125,1.85125 -13.64875,1.87 2.94,1.5175 5.3875,2.45375 8.63375,3.23 -3.05125,2.795 -5.45,4.63625 -8.42375,6.5275 4.99375,-1.20375 11.86625,-3.495 16.755,-6.35875 3.2375,0.21625 3.17,0.74125 6.45125,0.0525 -0.4225,-1.5225 -0.74375,-2.915 -1.11125,-4.87 4.63125,-3.585 7.9975,-6.815 11.8025,-10.6925 -4.08,2.85375 -7.61625,5 -12.29375,7.22 -0.22625,-2.18125 -0.365,-4.01375 -0.47,-6.455" />
    <path
       inkscape:connector-curvature="0"
       id="path3436"
       style="fill:#000000;fill-opacity:1;fill-rule:nonzero;stroke:none"
       d="m -213.63554,271.87265 c -0.1025,2.04125 -0.2425,7.2525 -0.2425,11.89875 0,3.25625 0.0937,6.3025 0.19,7.985 -0.3475,0 -4.07375,0 -4.2425,0 -0.5275,-0.715 -0.86875,-1.1125 -2.15625,-2.60625 l -0.36375,-0.42125 -8.25125,-9.67125 c -0.91125,-1.08375 -1.18625,-1.5925 -1.375,-2.1525 l -0.3575,-1.05875 0,1.1325 c 0,4.8425 0.004,9.8475 0.34125,14.7775 -0.34875,0 -5.16,0 -5.5025,0 0.1425,-3.09875 0.14375,-7.0425 0.14375,-10.5375 0,-1.92375 -0.03,-6.60125 -0.28625,-9.34625 0.37,0 6.4175,0 6.56625,0 2.07875,2.09375 3.7475,4.175 5.35875,6.19 l 2.68125,3.27375 c 1.69625,1.99875 2.00875,2.41375 2.39125,3.16875 l 0.425,0.83875 -0.0787,-0.93625 c -0.2113,-2.52125 -0.31505,-5.12125 -0.4163,-7.63625 0,10e-4 -0.21125,-4.54 -0.2275,-4.89875 0.34625,0 5.05625,0 5.4025,0" />
    <path
       inkscape:connector-curvature="0"
       id="path3438"
       style="fill:#000000;fill-opacity:1;fill-rule:nonzero;stroke:none"
       d="m -200.55179,274.03015 -0.15125,0.006 -0.0187,0.14875 c -0.105,0.67875 -0.20375,2.7375 -0.20375,3.1475 0,0.3925 0.0987,2.9475 0.2025,3.73875 l 0.0212,0.15375 0.67625,0.0275 1.39625,0.0363 c 5.0575,0 7.73125,-1.29 7.73125,-3.72875 0,-2.43375 -2.5125,-3.615 -7.68125,-3.615 l -1.9725,0.085 z m 4.38875,-2.1575 c 5.2175,0.0888 11.44125,1.14625 11.44125,5.6875 0,3.98 -4.45,5.91375 -13.605,5.91375 l -0.99,-0.0312 -1.48875,-0.0613 -0.0175,0.1675 c -0.1025,0.7775 -0.1025,2.8325 -0.1025,3.71125 0,1.19875 0.0463,1.96375 0.2375,4.49625 -0.36125,0 -5.98375,0 -6.3475,0 0.22,-1.88 0.28125,-3.78125 0.28125,-5.66125 0,-0.865 -0.0113,-1.72625 -0.0225,-2.5775 l -0.0225,-2.5825 0.0325,-2.6275 c 0.0162,-0.8725 0.0337,-1.75625 0.0337,-2.645 0,-1.26375 -0.04,-2.535 -0.155,-3.79 0.37875,0 10.725,0 10.725,0" />
    <path
       inkscape:connector-curvature="0"
       id="path3440"
       style="fill:#000000;fill-opacity:1;fill-rule:nonzero;stroke:none"
       d="m -164.82304,274.03015 -0.15125,0.006 -0.0187,0.14875 c -0.105,0.67875 -0.20375,2.7375 -0.20375,3.1475 0,0.3925 0.0988,2.9475 0.20375,3.73875 l 0.0187,0.15375 0.6775,0.0275 1.39625,0.0363 c 5.05875,0 7.73125,-1.29 7.73125,-3.72875 0,-2.43375 -2.51125,-3.615 -7.68125,-3.615 l -1.9725,0.085 z m 4.38875,-2.1575 c 5.2175,0.0888 11.44125,1.14625 11.44125,5.6875 0,3.98 -4.45,5.91375 -13.605,5.91375 l -0.99,-0.0312 -1.4875,-0.0613 -0.0187,0.1675 c -0.1025,0.7775 -0.1025,2.8325 -0.1025,3.71125 0,1.19875 0.0463,1.96375 0.2375,4.49625 -0.36125,0 -5.98375,0 -6.34625,0 0.21875,-1.88 0.28,-3.78125 0.28,-5.66125 0,-0.865 -0.0113,-1.72625 -0.0225,-2.5775 l -0.0225,-2.5825 0.0325,-2.6275 c 0.0163,-0.8725 0.0338,-1.75625 0.0338,-2.645 0,-1.26375 -0.0388,-2.535 -0.155,-3.79 0.37875,0 10.725,0 10.725,0" />
    <path
       inkscape:connector-curvature="0"
       id="path3442"
       style="fill:#000000;fill-opacity:1;fill-rule:nonzero;stroke:none"
       d="m -135.17179,271.9364 c 0.1025,0.1825 10.775,19.355 11.06875,19.88375 -0.55875,0 -6.34125,0 -6.5625,0 -0.32875,-0.7675 -1.73625,-3.675 -2.3825,-4.68125 l -0.0525,-0.0825 -1.275,-0.0188 -3.9075,-0.04 -3.715,0.04 -1.2775,0.0188 -0.0513,0.095 c -0.86875,1.6125 -1.37375,2.94875 -1.9325,4.66875 -0.23875,0 -5.04125,0 -5.59625,0 0.285,-0.49875 3.30125,-5.7825 3.30125,-5.7825 1.94125,-3.36375 3.94625,-6.8425 5.88125,-10.5025 0.385,-0.6825 1.025,-1.8675 1.88,-3.59875 0.21125,0 4.42,0 4.62125,0 z m -3.0675,5.6775 c -0.815,1.35625 -2.2575,4.09125 -3.11875,5.72625 l -0.74875,1.40625 0.2975,0.01 1.6725,0.0288 2.105,0.0275 2.075,-0.0288 1.83375,-0.0337 -0.12125,-0.25625 c -1.24125,-2.635 -2.745,-5.355 -3.68125,-6.88125 l -0.15875,-0.2575 -0.155,0.25875" />
    <path
       inkscape:connector-curvature="0"
       id="path3444"
       style="fill:#000000;fill-opacity:1;fill-rule:nonzero;stroke:none"
       d="m -40.349286,271.9364 c 0.1025,0.1825 10.77375,19.355 11.0675,19.88375 -0.55875,0 -6.34125,0 -6.56125,0 -0.33,-0.7675 -1.7375,-3.675 -2.3825,-4.68125 l -0.0538,-0.0825 -1.27375,-0.0188 -3.90875,-0.04 -3.715,0.04 -1.27625,0.0188 -0.0512,0.095 c -0.87,1.6125 -1.375,2.94875 -1.9325,4.66875 -0.24,0 -5.0425,0 -5.59625,0 0.28375,-0.49875 3.30125,-5.7825 3.30125,-5.7825 1.94,-3.36375 3.945,-6.8425 5.88,-10.5025 0.385,-0.6825 1.02625,-1.8675 1.88125,-3.59875 0.21125,0 4.42,0 4.62125,0 z m -3.06875,5.6775 c -0.81375,1.35625 -2.2575,4.09125 -3.11875,5.72625 l -0.74875,1.40625 0.2975,0.01 1.67375,0.0288 2.105,0.0275 2.07375,-0.0288 1.835,-0.0337 -0.12125,-0.25625 c -1.2425,-2.635 -2.745,-5.355 -3.6825,-6.88125 l -0.1575,-0.2575 -0.15625,0.25875" />
    <path
       inkscape:connector-curvature="0"
       id="path3446"
       style="fill:#000000;fill-opacity:1;fill-rule:nonzero;stroke:none"
       d="m -109.67179,271.87265 c 6.8175,0 10.887504,1.935 10.887504,5.1775 0,2.97625 -3.261254,4.14625 -6.450004,4.8975 l -0.23,0.0537 c 0,0 7.937504,9.335 8.265004,9.755 -0.65875,0 -6.878754,0 -7.073754,0 -1.685,-3.08375 -7.81375,-10.7625 -8.27375,-11.435 0.29875,10e-4 0.66125,0.002 0.66125,0.002 4.40125,0 6.92625,-1.1525 6.92625,-3.16125 0,-2.93625 -3.88375,-3.33125 -7.68125,-3.33125 l -2.15,0.0925 0.004,0.17625 0,6.0125 0.005,2.66625 c -10e-4,0.35 -10e-4,0.7575 -10e-4,1.20625 0,2.38625 0.0187,5.88875 0.13625,7.77125 -0.3525,0 -5.80875,0 -6.18875,0 0.155,-0.98375 0.19125,-2.48875 0.19125,-3.9375 0,-0.56875 -0.004,-1.125 -0.009,-1.6325 l -0.006,-1.05375 c 0,0 0.002,-3.18125 0.002,-3.74875 0,-3.99 -0.0312,-7.19875 -0.28625,-9.51125 0.39125,0 11.27125,0 11.27125,0" />
    <path
       inkscape:connector-curvature="0"
       id="path3448"
       style="fill:#000000;fill-opacity:1;fill-rule:nonzero;stroke:none"
       d="m -87.223036,271.87265 c -0.1925,2.11375 -0.3375,7.455 -0.3375,9.46 0,1.81875 0.0288,7.81875 0.3775,10.42375 -0.38125,0 -6.24625,0 -6.6275,0 0.34875,-2.60125 0.3775,-8.60375 0.3775,-10.42375 0,-2.005 -0.145,-7.34625 -0.33625,-9.46 0.36375,0 6.1825,0 6.54625,0" />
    <path
       inkscape:connector-curvature="0"
       id="path3450"
       style="fill:#000000;fill-opacity:1;fill-rule:nonzero;stroke:none"
       d="m -12.770536,286.9264 c 0,-1.83 -3.23625,-2.8775 -6.3675,-3.88875 -3.89875,-1.26 -8.31125,-2.685 -8.31125,-6.10625 0,-3.4525 4.21875,-5.77125 10.49875,-5.77125 2.465,0 4.855,0.3675 6.2825,0.58625 0.004,0.001 0.9175003,0.13375 1.2825003,0.18625 0,0.29125 0,3.5275 0,3.5275 0,0 0.004,0.28 0.007,0.50125 -0.3375,-0.11 -1.2062503,-0.39125 -1.2062503,-0.39125 -1.51075,-0.50375 -4.327,-1.44375 -7.22325,-1.44375 -4,0 -4,1.5025 -4,1.99625 0,1.69 3.14875,2.6925 6.1925,3.66375 3.98,1.2675 8.4887503,2.705 8.4887503,6.22 0,3.82 -4.3637503,6.10125 -11.6750003,6.10125 -2.8325,0 -5.6325,-0.52875 -7.13625,-0.8125 -0.002,0 -0.775,-0.13875 -1.10375,-0.1975 0,-0.28125 0,-3.48375 0,-3.48375 0,0 -0.002,-0.29125 -0.004,-0.52 0.31625,0.1175 0.9825,0.3625 0.9825,0.3625 1.69,0.63125 4.82375,1.80125 7.98375,1.80125 3.4425,0 5.30875,-0.3725 5.30875,-2.33125" />
    <path
       inkscape:connector-curvature="0"
       id="path3452"
       style="fill:#000000;fill-opacity:1;fill-rule:nonzero;stroke:none"
       d="m -247.88679,281.0289 -1.03,-0.21 1.04125,-0.15125 c 3.66375,-0.53 6.03125,-2.2175 6.03125,-4.29875 0,-3.2025 -4.715,-4.4225 -9.125,-4.49625 0,0 -12.30375,0 -12.685,0 0.1025,1.585 0.2375,9.025 0.2375,11.16125 0,0 -0.14125,8.385 -0.1475,8.7225 0.36125,0 11.33625,0 11.33625,0 5.6525,0 11.6925,-1.4125 11.6925,-5.37625 0,-2.58875 -2.40375,-4.34 -7.35125,-5.35125 z m -9.6575,-7.14125 2.59875,0 c 4.86,0 7.0275,0.93125 7.0275,3.02 0,1.91875 -2.0625,2.935 -6.2975,3.10375 l -1.10375,2.32875 1.32625,0 c 2.7575,-0.06 5.1475,0.63125 6.39125,1.8475 0.59125,0.58 0.89125,1.24125 0.89125,1.96625 0,2.38 -2.51625,3.5875 -7.48,3.5875 -0.88625,0 -2.37125,0 -3.1825,-0.0587 l -0.17125,-0.0125 0,-15.7825" />
    <path
       inkscape:connector-curvature="0"
       id="path3454"
       style="fill:#000000;fill-opacity:1;fill-rule:nonzero;stroke:none"
       d="m -65.013036,281.0289 -1.02875,-0.21 1.04,-0.15125 c 3.665,-0.53 6.0325,-2.2175 6.0325,-4.29875 0,-3.2025 -4.71625,-4.4225 -9.12625,-4.49625 0,0 -12.3025,0 -12.685,0 0.1025,1.585 0.2375,9.025 0.2375,11.16125 0,0 -0.14125,8.385 -0.1475,8.7225 0.36125,0 11.33625,0 11.33625,0 5.6525,0 11.6925,-1.4125 11.6925,-5.37625 0,-2.58875 -2.40375,-4.34 -7.35125,-5.35125 z m -9.6575,-7.14125 2.59875,0 c 4.86,0 7.0275,0.93125 7.0275,3.02 0,1.91875 -2.0625,2.935 -6.2975,3.10375 l -1.10375,2.32875 1.32625,0 c 2.7575,-0.06 5.1475,0.63125 6.39125,1.8475 0.5925,0.58 0.8925,1.24125 0.8925,1.96625 0,2.38 -2.5175,3.5875 -7.48,3.5875 -0.8875,0 -2.37125,0 -3.18375,-0.0587 l -0.17125,-0.0125 0,-15.7825" />
  </g>
</svg>
